<svg id="eZ1xnCBl9wV1" xmlns="http://www.w3.org/2000/svg" xmlns:xlink="http://www.w3.org/1999/xlink" viewBox="0 0 494.77 414.66" shape-rendering="geometricPrecision" text-rendering="geometricPrecision"><g id="eZ1xnCBl9wV2" transform="matrix(1 0 0 1 -6.810196 -414.155731)"><path id="eZ1xnCBl9wV3" d="M161.77,804.28C161.77,804.28,158.77,816.52,148.66,808.62C146.915302,807.218799,145.314108,805.647752,143.88,803.93C124.62,781.52,63.33,715.24,63.33,715.24L63.44,706.57L155,804.28C155.578451,803.229874,156.066865,802.132614,156.46,801C157.070072,799.329801,157.587525,797.627214,158.01,795.9C158.28,794.82,158.55,793.63,158.8,792.33C159.1,790.81,159.37,789.13,159.61,787.28C159.74,786.28,159.86,785.22,159.96,784.11C160.06,783,160.15,781.91,160.22,780.74C160.32,779.34,160.38,777.87,160.42,776.33C160.49,773.85,160.49,771.19,160.42,768.33C160.42,767.07,160.32,765.76,160.25,764.42C160.18,763.08,160.09,761.83,159.98,760.48C159.87,759.13,159.76,757.88,159.63,756.48C159.5,755.08,159.3,753.48,159.11,751.86C158.92,750.24,158.66,748.46,158.4,746.69L71.86,660.69L62.53,651.42L62.53,641.83L152.03,730.83L164.6,743.34C164.6,743.34,170.07,783.73,161.77,804.28Z" transform="matrix(1 0 0 1 -48.389999 -399.540009)" fill="rgb(241,135,48)" stroke="rgb(29,29,27)" stroke-width="1" stroke-linejoin="round"/><path id="eZ1xnCBl9wV4" d="M160.42,776.33C160.42,777.87,160.32,779.33,160.22,780.74C160.15,781.91,160.06,783.04,159.96,784.11C159.86,785.18,159.74,786.28,159.61,787.28C159.37,789.13,159.1,790.81,158.8,792.33C158.55,793.63,158.28,794.82,158.01,795.9C157.587525,797.627214,157.070072,799.329801,156.46,801L71.46,708.76L71.46,704.12L71.46,703.35L71.46,700.17L71.46,695.54L71.46,691.69L71.46,688.04L71.46,683.6L71.46,679.82L71.46,674.6L71.46,670.69L71.46,666.12L71.46,660.72L158,746.72C158.26,748.49,158.5,750.21,158.71,751.89C158.92,753.57,159.08,755.01,159.23,756.51C159.38,758.01,159.48,759.18,159.58,760.51C159.68,761.84,159.78,763.17,159.85,764.45C159.92,765.73,159.98,767.1,160.02,768.36C160.49,771.19,160.49,773.85,160.42,776.33Z" transform="matrix(1 0 0 1 -48.389999 -399.540009)" fill="rgb(255,255,255)" stroke="rgb(29,29,27)" stroke-width="1" stroke-linejoin="round"/><path id="eZ1xnCBl9wV5" d="" transform="matrix(1 0 0 1 -48.389999 -399.540009)" fill="rgb(241,135,48)" stroke="rgb(29,29,27)" stroke-width="1" stroke-linejoin="round"/><path id="eZ1xnCBl9wV6" d="M156.46,801C156.066865,802.132614,155.578451,803.229874,155,804.28L63.44,706.57L71.54,703.35L71.54,704.12L71.54,708.76Z" transform="matrix(1 0 0 1 -48.389999 -399.540009)" fill="rgb(204,117,40)" stroke="rgb(29,29,27)" stroke-width="1" stroke-linejoin="round"/><path id="eZ1xnCBl9wV7" d="M534.74,784.13L163.41,813.62C163.41,813.62,154.65,814.71,148.66,808.62C158.8,816.52,161.77,804.28,161.77,804.28C170.07,783.73,164.58,743.37,164.58,743.37L536.84,710C536.84,710,551.24,744.3,534.74,784.13Z" transform="matrix(1 0 0 1 -48.389999 -399.540009)" fill="rgb(241,135,48)" stroke="rgb(29,29,27)" stroke-width="1" stroke-linejoin="round"/><polygon id="eZ1xnCBl9wV8" points="475,302.41 103.62,331.32 14.12,242.32 339.54,221.82 475,302.41" fill="rgb(241,135,48)" stroke="rgb(29,29,27)" stroke-width="1" stroke-linejoin="round"/><polygon id="eZ1xnCBl9wV9" points="488.45,310.41 116.19,343.83 103.62,331.32 475,302.41 475.01,302.41 488.45,310.41" fill="rgb(204,117,40)" stroke="rgb(29,29,27)" stroke-width="1" stroke-linejoin="round"/><line id="eZ1xnCBl9wV10" x1="111.22" y1="387.74" x2="86.85" y2="363.81" fill="none" stroke="rgb(29,29,27)" stroke-width="1" stroke-linejoin="round"/><line id="eZ1xnCBl9wV11" x1="91.58" y1="376.79" x2="109.62" y2="396.36" fill="none" stroke="rgb(29,29,27)" stroke-width="1" stroke-linejoin="round"/><line id="eZ1xnCBl9wV12" x1="92.95" y1="374.65" x2="110.41" y2="392.79" fill="none" stroke="rgb(29,29,27)" stroke-width="1" stroke-linejoin="round"/><line id="eZ1xnCBl9wV13" x1="99.03" y1="372.21" x2="111.57" y2="384.57" fill="none" stroke="rgb(29,29,27)" stroke-width="1" stroke-linejoin="round"/><line id="eZ1xnCBl9wV14" x1="92.95" y1="362.28" x2="111.84" y2="381.21" fill="none" stroke="rgb(29,29,27)" stroke-width="1" stroke-linejoin="round"/><line id="eZ1xnCBl9wV15" x1="89.14" y1="352.99" x2="112.04" y2="376.79" fill="none" stroke="rgb(29,29,27)" stroke-width="1" stroke-linejoin="round"/><line id="eZ1xnCBl9wV16" x1="100.59" y1="360.31" x2="112.04" y2="372.97" fill="none" stroke="rgb(29,29,27)" stroke-width="1" stroke-linejoin="round"/><line id="eZ1xnCBl9wV17" x1="90.97" y1="347.65" x2="112.01" y2="368.8" fill="none" stroke="rgb(29,29,27)" stroke-width="1" stroke-linejoin="round"/><line id="eZ1xnCBl9wV18" x1="92.34" y1="345.05" x2="111.84" y2="364.89" fill="none" stroke="rgb(29,29,27)" stroke-width="1" stroke-linejoin="round"/><line id="eZ1xnCBl9wV19" x1="100.94" y1="350.22" x2="111.57" y2="360.95" fill="none" stroke="rgb(29,29,27)" stroke-width="1" stroke-linejoin="round"/><line id="eZ1xnCBl9wV20" x1="86.09" y1="331.32" x2="111.22" y2="357" fill="none" stroke="rgb(29,29,27)" stroke-width="1" stroke-linejoin="round"/><line id="eZ1xnCBl9wV21" x1="93.55" y1="335.65" x2="110.7" y2="352.38" fill="none" stroke="rgb(29,29,27)" stroke-width="1" stroke-linejoin="round"/><line id="eZ1xnCBl9wV22" x1="23.41" y1="266.58" x2="36.79" y2="280.28" fill="none" stroke="rgb(29,29,27)" stroke-width="1" stroke-linejoin="round"/><line id="eZ1xnCBl9wV23" x1="23.38" y1="271.15" x2="31.7" y2="278.98" fill="none" stroke="rgb(29,29,27)" stroke-width="1" stroke-linejoin="round"/><line id="eZ1xnCBl9wV24" x1="23.35" y1="275.06" x2="36.79" y2="288.5" fill="none" stroke="rgb(29,29,27)" stroke-width="1" stroke-linejoin="round"/><line id="eZ1xnCBl9wV25" x1="23.32" y1="280.28" x2="38.74" y2="294.24" fill="none" stroke="rgb(29,29,27)" stroke-width="1" stroke-linejoin="round"/><line id="eZ1xnCBl9wV26" x1="23.29" y1="284.06" x2="48.53" y2="307.93" fill="none" stroke="rgb(29,29,27)" stroke-width="1" stroke-linejoin="round"/><line id="eZ1xnCBl9wV27" x1="23.26" y1="288.5" x2="36.79" y2="301.54" fill="none" stroke="rgb(29,29,27)" stroke-width="1" stroke-linejoin="round"/><line id="eZ1xnCBl9wV28" x1="23.23" y1="292.15" x2="40.57" y2="309.63" fill="none" stroke="rgb(29,29,27)" stroke-width="1" stroke-linejoin="round"/><line id="eZ1xnCBl9wV29" x1="23.2" y1="296" x2="46.47" y2="321.49" fill="none" stroke="rgb(29,29,27)" stroke-width="1" stroke-linejoin="round"/><line id="eZ1xnCBl9wV30" x1="23.17" y1="300.63" x2="39.33" y2="317.05" fill="none" stroke="rgb(29,29,27)" stroke-width="1" stroke-linejoin="round"/><line id="eZ1xnCBl9wV31" x1="23.14" y1="304.58" x2="41.22" y2="322.6" fill="none" stroke="rgb(29,29,27)" stroke-width="1" stroke-linejoin="round"/></g><g id="eZ1xnCBl9wV32" transform="matrix(1 0 0 1 2.139269 -295.12551)"><path id="eZ1xnCBl9wV33" d="M532.6,611L215.28,676.27C230.34,643.13,218.28,599.45,218.28,599.45C218.28,599.45,530.07,541.71,530.07,541.21C547.16,571.84,532.6,611,532.6,611Z" transform="matrix(1 0 0 1 -48.389999 -399.540009)" fill="rgb(196,196,196)" stroke="rgb(29,29,27)" stroke-width="1" stroke-linejoin="round"/><path id="eZ1xnCBl9wV34" d="M215.28,676.27C213.340806,676.762698,211.309194,676.762698,209.37,676.27L50.47,610.74C49.761935,610.449085,49.294332,609.765364,49.28,609L49.08,603.43C49.072609,603.038949,49.313275,602.685972,49.68,602.55C49.894378,602.460555,50.135622,602.460555,50.35,602.55L210.76,671.22C211.48,669.55,212.12,667.87,212.69,666.22C213.04,665.22,213.35,664.22,213.64,663.22C213.93,662.22,214.2,661.31,214.45,660.36C214.75,659.18,215.03,658.01,215.28,656.84Q215.86,654.1,216.28,651.39C216.5,649.9,216.67,648.39,216.8,646.96L216.8,646.96C216.91,645.75,217,644.55,217.06,643.37C217.12,642.19,217.18,640.96,217.2,639.78C217.22,638.6,217.2,637.27,217.2,636.04C217.2,634.81,217.14,633.55,217.07,632.35C216.98,630.6,216.84,628.91,216.68,627.28L216.68,627.28C216.57,626.08,216.43,624.92,216.28,623.8C216.01,621.74,215.69,619.8,215.36,618.05C214.89,615.55,214.36,613.37,213.94,611.57C213.04,607.98,212.3,605.92,212.3,605.92L56.2,546.1L50.07,543.75C49.346003,543.475108,48.873425,542.77425,48.89,542L49.02,538.81C49.034974,538.429564,49.231078,538.079261,49.54756,537.867613C49.864042,537.655966,50.262689,537.608529,50.62,537.74L200.45,592.92L218.29,599.49C218.29,599.49,230.34,643.13,215.28,676.27Z" transform="matrix(1 0 0 1 -48.389999 -399.540009)" fill="rgb(196,196,196)" stroke="rgb(29,29,27)" stroke-width="1" stroke-linejoin="round"/><path id="eZ1xnCBl9wV35" d="M212.69,666.23C212.12,667.9,211.48,669.58,210.76,671.23L50.35,602.58C50.135622,602.490555,49.894378,602.490555,49.68,602.58L57.22,599.33L57.22,601.5Z" transform="matrix(1 0 0 1 -48.389999 -399.540009)" fill="rgb(159,159,159)" stroke="rgb(29,29,27)" stroke-width="1" stroke-linejoin="round"/><path id="eZ1xnCBl9wV36" d="M217.18,636.1C217.18,637.33,217.18,638.57,217.18,639.84C217.18,641.11,217.12,642.21,217.04,643.43C216.96,644.65,216.89,645.81,216.78,647.02L216.78,647.02C216.65,648.48,216.48,649.96,216.26,651.45Q215.87,654.15,215.26,656.9C215.01,658.07,214.73,659.24,214.43,660.42C214.18,661.42,213.92,662.33,213.62,663.28C213.32,664.23,213.02,665.28,212.67,666.28L57.26,601.49L57.26,599.32L57.17,594.53L57.09,590.53L57,586.7L56.92,582.51L56.85,578.93L56.78,575.42L56.66,569.08L56.37,553.85L56.28,549.22L56.22,546.1L212.27,606C212.27,606,213.01,608.06,213.91,611.65C214.37,613.45,214.91,615.65,215.33,618.13C215.66,619.9,215.98,621.82,216.25,623.88C216.4,625,216.54,626.16,216.65,627.36L216.65,627.36C216.81,628.99,216.95,630.68,217.04,632.43C217.12,633.61,217.16,634.84,217.18,636.1Z" transform="matrix(1 0 0 1 -48.389999 -399.540009)" fill="rgb(255,255,255)" stroke="rgb(29,29,27)" stroke-width="1" stroke-linejoin="round"/><polygon id="eZ1xnCBl9wV37" points="469.81,138.09 152.06,193.34 2.23,138.16 299.08,86.62 469.81,138.09" fill="rgb(196,196,196)" stroke="rgb(29,29,27)" stroke-width="1" stroke-linejoin="round"/><path id="eZ1xnCBl9wV38" d="M530.08,541.21C530.08,541.71,218.29,599.45,218.29,599.45L200.45,592.88L518.2,537.63Z" transform="matrix(1 0 0 1 -48.389999 -399.540009)" fill="rgb(159,159,159)" stroke="rgb(29,29,27)" stroke-width="1" stroke-linejoin="round"/><line id="eZ1xnCBl9wV39" x1="7.96" y1="154.31" x2="49.28" y2="168.8" fill="none" stroke="rgb(29,29,27)" stroke-width="1" stroke-linejoin="round"/><line id="eZ1xnCBl9wV40" x1="8.07" y1="159.75" x2="52.51" y2="176.32" fill="none" stroke="rgb(29,29,27)" stroke-width="1" stroke-linejoin="round"/><line id="eZ1xnCBl9wV41" x1="7.88" y1="149.68" x2="31.99" y2="158.6" fill="none" stroke="rgb(29,29,27)" stroke-width="1" stroke-linejoin="round"/><line id="eZ1xnCBl9wV42" x1="8.14" y1="163.39" x2="29.83" y2="170.07" fill="none" stroke="rgb(29,29,27)" stroke-width="1" stroke-linejoin="round"/><line id="eZ1xnCBl9wV43" x1="8.21" y1="167.17" x2="37.86" y2="175.88" fill="none" stroke="rgb(29,29,27)" stroke-width="1" stroke-linejoin="round"/><line id="eZ1xnCBl9wV44" x1="8.25" y1="169.54" x2="49.28" y2="183.44" fill="none" stroke="rgb(29,29,27)" stroke-width="1" stroke-linejoin="round"/><line id="eZ1xnCBl9wV45" x1="8.31" y1="172.37" x2="37.39" y2="181.48" fill="none" stroke="rgb(29,29,27)" stroke-width="1" stroke-linejoin="round"/><line id="eZ1xnCBl9wV46" x1="8.37" y1="175.88" x2="54.07" y2="191.75" fill="none" stroke="rgb(29,29,27)" stroke-width="1" stroke-linejoin="round"/><line id="eZ1xnCBl9wV47" x1="8.59" y1="187.16" x2="59.94" y2="206.63" fill="none" stroke="rgb(29,29,27)" stroke-width="1" stroke-linejoin="round"/><line id="eZ1xnCBl9wV48" x1="8.51" y1="182.97" x2="28.14" y2="190.19" fill="none" stroke="rgb(29,29,27)" stroke-width="1" stroke-linejoin="round"/><line id="eZ1xnCBl9wV49" x1="8.44" y1="179.39" x2="35.43" y2="189.92" fill="none" stroke="rgb(29,29,27)" stroke-width="1" stroke-linejoin="round"/><line id="eZ1xnCBl9wV50" x1="8.74" y1="194.99" x2="40.63" y2="207.59" fill="none" stroke="rgb(29,29,27)" stroke-width="1" stroke-linejoin="round"/><line id="eZ1xnCBl9wV51" x1="8.66" y1="190.94" x2="30.71" y2="199.78" fill="none" stroke="rgb(29,29,27)" stroke-width="1" stroke-linejoin="round"/><line id="eZ1xnCBl9wV52" x1="8.83" y1="198.16" x2="29.83" y2="207.01" fill="none" stroke="rgb(29,29,27)" stroke-width="1" stroke-linejoin="round"/><line id="eZ1xnCBl9wV53" x1="165.52" y1="212.09" x2="134.99" y2="199.78" fill="none" stroke="rgb(29,29,27)" stroke-width="1" stroke-linejoin="round"/><line id="eZ1xnCBl9wV54" x1="165.26" y1="263.74" x2="146.21" y2="255.51" fill="none" stroke="rgb(29,29,27)" stroke-width="1" stroke-linejoin="round"/><line id="eZ1xnCBl9wV55" x1="166.06" y1="260.88" x2="144.6" y2="251.91" fill="none" stroke="rgb(29,29,27)" stroke-width="1" stroke-linejoin="round"/><line id="eZ1xnCBl9wV56" x1="166.89" y1="257.36" x2="134.99" y2="244.9" fill="none" stroke="rgb(29,29,27)" stroke-width="1" stroke-linejoin="round"/><line id="eZ1xnCBl9wV57" x1="167.86" y1="251.91" x2="131.39" y2="237.29" fill="none" stroke="rgb(29,29,27)" stroke-width="1" stroke-linejoin="round"/><line id="eZ1xnCBl9wV58" x1="168.38" y1="247.48" x2="149.62" y2="240.3" fill="none" stroke="rgb(29,29,27)" stroke-width="1" stroke-linejoin="round"/><line id="eZ1xnCBl9wV59" x1="168.66" y1="243.89" x2="143.36" y2="234.48" fill="none" stroke="rgb(29,29,27)" stroke-width="1" stroke-linejoin="round"/><line id="eZ1xnCBl9wV60" x1="168.8" y1="240.3" x2="152.06" y2="234.48" fill="none" stroke="rgb(29,29,27)" stroke-width="1" stroke-linejoin="round"/><line id="eZ1xnCBl9wV61" x1="168.8" y1="236.56" x2="129.27" y2="222.35" fill="none" stroke="rgb(29,29,27)" stroke-width="1" stroke-linejoin="round"/><line id="eZ1xnCBl9wV62" x1="168.66" y1="232.87" x2="134.27" y2="221.14" fill="none" stroke="rgb(29,29,27)" stroke-width="1" stroke-linejoin="round"/><line id="eZ1xnCBl9wV63" x1="168.26" y1="227.8" x2="141.69" y2="218.57" fill="none" stroke="rgb(29,29,27)" stroke-width="1" stroke-linejoin="round"/><line id="eZ1xnCBl9wV64" x1="167.86" y1="224.32" x2="136.54" y2="212.09" fill="none" stroke="rgb(29,29,27)" stroke-width="1" stroke-linejoin="round"/><line id="eZ1xnCBl9wV65" x1="166.94" y1="218.57" x2="127.6" y2="203.71" fill="none" stroke="rgb(29,29,27)" stroke-width="1" stroke-linejoin="round"/></g><g id="eZ1xnCBl9wV66" transform="matrix(1 0 0 1 -4.310712 -143.373289)"><path id="eZ1xnCBl9wV67" d="M514.61,487.23L261,526.12C261,526.12,234.28,531.12,233.35,530.65C244.35,512.65,239.8,478.54,239.8,478.54L514.62,442.12C520.720948,456.538525,520.71734,472.814182,514.61,487.23Z" transform="matrix(1 0 0 1 -48.389999 -399.540009)" fill="rgb(253,199,92)" stroke="rgb(29,29,27)" stroke-width="1" stroke-linejoin="round"/><path id="eZ1xnCBl9wV68" d="M233.34,530.65L90.4,483.36L90.27,476.56C90.27,476.56,230.5,525.17,230.5,524.82C231.032226,523.905783,231.509731,522.960789,231.93,521.99C232.29,521.15,232.63,520.28,232.93,519.38C233.23,518.48,233.55,517.38,233.81,516.38C234.2,514.88,234.53,513.32,234.81,511.74C235.09,510.16,235.29,508.64,235.45,507.07C235.6,505.66,235.71,504.24,235.78,502.84C235.85,501.44,235.91,500.21,235.94,498.92C235.94,497.85,235.94,496.8,235.94,495.78C235.94,494.76,235.94,493.61,235.88,492.58C235.88,491.25,235.78,490,235.71,488.84C235.61,487,235.48,485.41,235.36,484.13C235.17,482.06,235,480.84,235,480.84L96,436.45L91.14,434.89C90.387061,433.214383,90.601406,431.262311,91.7,429.79L234.33,476.74L234.33,476.74L239.8,478.54C239.8,478.54,244.39,512.69,233.34,530.65Z" transform="matrix(1 0 0 1 -48.389999 -399.540009)" fill="rgb(253,199,92)" stroke="rgb(29,29,27)" stroke-width="1" stroke-linejoin="round"/><path id="eZ1xnCBl9wV69" d="" transform="matrix(1 0 0 1 -48.389999 -399.540009)" fill="none" stroke="rgb(29,29,27)" stroke-width="1" stroke-linejoin="round"/><path id="eZ1xnCBl9wV70" d="M235.94,495.82C235.94,496.82,235.94,497.89,235.94,498.96C235.94,500.25,235.86,501.56,235.78,502.88C235.7,504.2,235.6,505.7,235.45,507.11C235.29,508.68,235.08,510.24,234.81,511.78C234.54,513.32,234.22,514.92,233.81,516.42C233.55,517.42,233.26,518.42,232.93,519.42C232.6,520.42,232.29,521.19,231.93,522.03L95.46,475.32L95.46,473.63L95.46,472.54L95.46,471.21L95.46,470.38L95.46,468.11L95.46,464.91L95.46,462.17L95.46,459.1L95.46,455.99L95.52,451.14L95.52,447.63L95.52,444.53L95.52,441.16L95.58,436.45L234.58,480.88C234.58,480.88,234.75,482.1,234.94,484.17C235.06,485.45,235.19,487.04,235.29,488.88C235.36,490.04,235.42,491.29,235.46,492.62C235.91,493.65,235.93,494.72,235.94,495.82Z" transform="matrix(1 0 0 1 -48.389999 -399.540009)" fill="rgb(255,255,255)" stroke="rgb(29,29,27)" stroke-width="1" stroke-linejoin="round"/><path id="eZ1xnCBl9wV71" d="M231.93,522C231.509731,522.970789,231.032226,523.915783,230.5,524.83C230.5,525.18,90.27,476.57,90.27,476.57L95.48,473.64L95.48,475.33Z" transform="matrix(1 0 0 1 -48.389999 -399.540009)" fill="rgb(208,166,78)" stroke="rgb(29,29,27)" stroke-width="1" stroke-linejoin="round"/><polygon id="eZ1xnCBl9wV72" points="455.94,40.16 185.93,77.2 185.92,77.2 43.29,30.25 287.39,0.5 455.94,40.16" fill="rgb(253,199,92)" stroke="rgb(29,29,27)" stroke-width="1" stroke-linejoin="round"/><polygon id="eZ1xnCBl9wV73" points="466.22,42.58 191.4,79 185.93,77.2 455.94,40.16 455.95,40.16 466.22,42.58" fill="rgb(208,166,78)" stroke="rgb(29,29,27)" stroke-width="1" stroke-linejoin="round"/><polygon id="eZ1xnCBl9wV74" points="47.66,41.14 61.8,45.8 47.38,42.1 47.66,41.14" fill="rgb(29,29,27)" stroke="none" stroke-width="1"/><polygon id="eZ1xnCBl9wV75" points="47.62,44.51 91.73,58.2 47.34,45.47 47.62,44.51" fill="rgb(29,29,27)" stroke="none" stroke-width="1"/><polygon id="eZ1xnCBl9wV76" points="47.58,47.61 56.27,50.79 47.29,48.57 47.58,47.61" fill="rgb(29,29,27)" stroke="none" stroke-width="1"/><polygon id="eZ1xnCBl9wV77" points="47.54,51.12 68,58.2 47.24,52.07 47.54,51.12" fill="rgb(29,29,27)" stroke="none" stroke-width="1"/><polygon id="eZ1xnCBl9wV78" points="47.48,55.97 61.13,60.76 47.18,56.93 47.48,55.97" fill="rgb(29,29,27)" stroke="none" stroke-width="1"/><polygon id="eZ1xnCBl9wV79" points="47.41,59.07 76.62,67.17 47.16,60.04 47.41,59.07" fill="rgb(29,29,27)" stroke="none" stroke-width="1"/><polygon id="eZ1xnCBl9wV80" points="47.39,62.15 74.28,70.84 47.1,63.11 47.39,62.15" fill="rgb(29,29,27)" stroke="none" stroke-width="1"/><polygon id="eZ1xnCBl9wV81" points="47.33,64.88 59.46,68.57 47.08,65.85 47.33,64.88" fill="rgb(29,29,27)" stroke="none" stroke-width="1"/><polygon id="eZ1xnCBl9wV82" points="47.31,68.09 90.18,81.86 47.02,69.05 47.31,68.09" fill="rgb(29,29,27)" stroke="none" stroke-width="1"/><polygon id="eZ1xnCBl9wV83" points="47.29,70.37 77.38,81.01 46.97,71.32 47.29,70.37" fill="rgb(29,29,27)" stroke="none" stroke-width="1"/><polygon id="eZ1xnCBl9wV84" points="47.23,72.52 64.15,78.75 46.91,73.47 47.23,72.52" fill="rgb(29,29,27)" stroke="none" stroke-width="1"/><polygon id="eZ1xnCBl9wV85" points="186.82,85.11 165.47,77.77 187.13,84.16 186.82,85.11" fill="rgb(29,29,27)" stroke="none" stroke-width="1"/><polygon id="eZ1xnCBl9wV86" points="187.17,89.81 138.34,72.88 187.49,88.86 187.17,89.81" fill="rgb(29,29,27)" stroke="none" stroke-width="1"/><polygon id="eZ1xnCBl9wV87" points="187.33,93.55 159.33,83.73 187.65,92.61 187.33,93.55" fill="rgb(29,29,27)" stroke="none" stroke-width="1"/><polygon id="eZ1xnCBl9wV88" points="187.4,96.75 159.33,87.29 187.7,95.8 187.4,96.75" fill="rgb(29,29,27)" stroke="none" stroke-width="1"/><polygon id="eZ1xnCBl9wV89" points="187.36,99.89 154.11,87.75 187.69,98.95 187.36,99.89" fill="rgb(29,29,27)" stroke="none" stroke-width="1"/><polygon id="eZ1xnCBl9wV90" points="187.23,103.82 127.22,84.63 187.53,102.86 187.23,103.82" fill="rgb(29,29,27)" stroke="none" stroke-width="1"/><polygon id="eZ1xnCBl9wV91" points="186.89,108.05 133.3,89.95 187.2,107.1 186.89,108.05" fill="rgb(29,29,27)" stroke="none" stroke-width="1"/><polygon id="eZ1xnCBl9wV92" points="186.25,112.71 141.67,97.35 186.57,111.76 186.25,112.71" fill="rgb(29,29,27)" stroke="none" stroke-width="1"/><polygon id="eZ1xnCBl9wV93" points="185.27,117.35 150.57,105.46 185.58,116.4 185.27,117.35" fill="rgb(29,29,27)" stroke="none" stroke-width="1"/><polygon id="eZ1xnCBl9wV94" points="184.38,120.31 161.67,112.24 184.7,119.36 184.38,120.31" fill="rgb(29,29,27)" stroke="none" stroke-width="1"/></g><script><![CDATA[!function(t,n){"object"==typeof exports&&"undefined"!=typeof module?module.exports=n():"function"==typeof define&&define.amd?define(n):(t="undefined"!=typeof globalThis?globalThis:t||self).__SVGATOR_PLAYER__=n()}(this,(function(){"use strict";function t(n){return(t="function"==typeof Symbol&&"symbol"==typeof Symbol.iterator?function(t){return typeof t}:function(t){return t&&"function"==typeof Symbol&&t.constructor===Symbol&&t!==Symbol.prototype?"symbol":typeof t})(n)}function n(t,n){if(!(t instanceof n))throw new TypeError("Cannot call a class as a function")}function r(t,n){for(var r=0;r<n.length;r++){var e=n[r];e.enumerable=e.enumerable||!1,e.configurable=!0,"value"in e&&(e.writable=!0),Object.defineProperty(t,e.key,e)}}function e(t,n,e){return n&&r(t.prototype,n),e&&r(t,e),t}function i(t){return(i=Object.setPrototypeOf?Object.getPrototypeOf:function(t){return t.__proto__||Object.getPrototypeOf(t)})(t)}function o(t,n){return(o=Object.setPrototypeOf||function(t,n){return t.__proto__=n,t})(t,n)}function u(t,n){if(n&&("object"==typeof n||"function"==typeof n))return n;if(void 0!==n)throw new TypeError("Derived constructors may only return object or undefined");return function(t){if(void 0===t)throw new ReferenceError("this hasn't been initialised - super() hasn't been called");return t}(t)}function a(t){var n=function(){if("undefined"==typeof Reflect||!Reflect.construct)return!1;if(Reflect.construct.sham)return!1;if("function"==typeof Proxy)return!0;try{return Boolean.prototype.valueOf.call(Reflect.construct(Boolean,[],(function(){}))),!0}catch(t){return!1}}();return function(){var r,e=i(t);if(n){var o=i(this).constructor;r=Reflect.construct(e,arguments,o)}else r=e.apply(this,arguments);return u(this,r)}}function l(t,n,r){return(l="undefined"!=typeof Reflect&&Reflect.get?Reflect.get:function(t,n,r){var e=function(t,n){for(;!Object.prototype.hasOwnProperty.call(t,n)&&null!==(t=i(t)););return t}(t,n);if(e){var o=Object.getOwnPropertyDescriptor(e,n);return o.get?o.get.call(r):o.value}})(t,n,r||t)}var f=s(Math.pow(10,-6));function s(t){var n=arguments.length>1&&void 0!==arguments[1]?arguments[1]:6;if(Number.isInteger(t))return t;var r=Math.pow(10,n);return Math.round((+t+Number.EPSILON)*r)/r}function c(t,n){var r=arguments.length>2&&void 0!==arguments[2]?arguments[2]:f;return Math.abs(t-n)<r}var h=Math.PI/180;function v(t){return t}function y(t,n,r){var e=1-r;return 3*r*e*(t*e+n*r)+r*r*r}function d(){var t=arguments.length>0&&void 0!==arguments[0]?arguments[0]:0,n=arguments.length>1&&void 0!==arguments[1]?arguments[1]:0,r=arguments.length>2&&void 0!==arguments[2]?arguments[2]:1,e=arguments.length>3&&void 0!==arguments[3]?arguments[3]:1;return t<0||t>1||r<0||r>1?null:c(t,n)&&c(r,e)?v:function(i){if(i<=0)return t>0?i*n/t:0===n&&r>0?i*e/r:0;if(i>=1)return r<1?1+(i-1)*(e-1)/(r-1):1===r&&t<1?1+(i-1)*(n-1)/(t-1):1;for(var o,u=0,a=1;u<a;){var l=y(t,r,o=(u+a)/2);if(c(i,l))break;l<i?u=o:a=o}return y(n,e,o)}}function g(){return 1}function p(t){return 1===t?1:0}function m(){var t=arguments.length>0&&void 0!==arguments[0]?arguments[0]:1,n=arguments.length>1&&void 0!==arguments[1]?arguments[1]:0;if(1===t){if(0===n)return p;if(1===n)return g}var r=1/t;return function(t){return t>=1?1:(t+=n*r)-t%r}}function b(t,n,r){return t>=.5?r:n}function w(t,n,r){return 0===t||n===r?n:t*(r-n)+n}function x(t,n,r){var e=w(t,n,r);return e<=0?0:e}function k(t,n,r){return 0===t?n:1===t?r:{x:w(t,n.x,r.x),y:w(t,n.y,r.y)}}function A(t,n,r){var e=function(t,n,r){return Math.round(w(t,n,r))}(t,n,r);return e<=0?0:e>=255?255:e}function S(t,n,r){return 0===t?n:1===t?r:{r:A(t,n.r,r.r),g:A(t,n.g,r.g),b:A(t,n.b,r.b),a:w(t,null==n.a?1:n.a,null==r.a?1:r.a)}}function _(t,n,r){if(0===t)return n;if(1===t)return r;var e=n.length;if(e!==r.length)return b(t,n,r);for(var i=[],o=0;o<e;o++)i.push(S(t,n[o],r[o]));return i}function O(t,n){for(var r=[],e=0;e<t;e++)r.push(n);return r}function M(t,n){if(--n<=0)return t;var r=(t=Object.assign([],t)).length;do{for(var e=0;e<r;e++)t.push(t[e])}while(--n>0);return t}var j,P=function(){function t(r){n(this,t),this.list=r,this.length=r.length}return e(t,[{key:"setAttribute",value:function(t,n){for(var r=this.list,e=0;e<this.length;e++)r[e].setAttribute(t,n)}},{key:"removeAttribute",value:function(t){for(var n=this.list,r=0;r<this.length;r++)n[r].removeAttribute(t)}},{key:"style",value:function(t,n){for(var r=this.list,e=0;e<this.length;e++)r[e].style[t]=n}}]),t}(),E=/-./g,I=function(t,n){return n.toUpperCase()};function F(t){return"function"==typeof t?t:b}function N(t){return t?"function"==typeof t?t:Array.isArray(t)?function(t){var n=arguments.length>1&&void 0!==arguments[1]?arguments[1]:v;if(!Array.isArray(t))return n;switch(t.length){case 1:return m(t[0])||n;case 2:return m(t[0],t[1])||n;case 4:return d(t[0],t[1],t[2],t[3])||n}return n}(t,null):function(t,n){var r=arguments.length>2&&void 0!==arguments[2]?arguments[2]:v;switch(t){case"linear":return v;case"steps":return m(n.steps||1,n.jump||0)||r;case"bezier":case"cubic-bezier":return d(n.x1||0,n.y1||0,n.x2||0,n.y2||0)||r}return r}(t.type,t.value,null):null}function B(t,n,r){var e=arguments.length>3&&void 0!==arguments[3]&&arguments[3],i=n.length-1;if(t<=n[0].t)return e?[0,0,n[0].v]:n[0].v;if(t>=n[i].t)return e?[i,1,n[i].v]:n[i].v;var o,u=n[0],a=null;for(o=1;o<=i;o++){if(!(t>n[o].t)){a=n[o];break}u=n[o]}return null==a?e?[i,1,n[i].v]:n[i].v:u.t===a.t?e?[o,1,a.v]:a.v:(t=(t-u.t)/(a.t-u.t),u.e&&(t=u.e(t)),e?[o,t,r(t,u.v,a.v)]:r(t,u.v,a.v))}function R(t,n){var r=arguments.length>2&&void 0!==arguments[2]?arguments[2]:null;return t&&t.length?"function"!=typeof n?null:("function"!=typeof r&&(r=null),function(e){var i=B(e,t,n);return null!=i&&r&&(i=r(i)),i}):null}function q(t,n){return t.t-n.t}function T(n,r,e,i,o){var u,a="@"===e[0],l="#"===e[0],f=j[e],s=b;switch(a?(u=e.substr(1),e=u.replace(E,I)):l&&(e=e.substr(1)),t(f)){case"function":if(s=f(i,o,B,N,e,a,r,n),l)return s;break;case"string":s=R(i,F(f));break;case"object":if((s=R(i,F(f.i),f.f))&&"function"==typeof f.u)return f.u(r,s,e,a,n)}return s?function(t,n,r){if(arguments.length>3&&void 0!==arguments[3]&&arguments[3])return t instanceof P?function(e){return t.style(n,r(e))}:function(e){return t.style[n]=r(e)};if(Array.isArray(n)){var e=n.length;return function(i){var o=r(i);if(null==o)for(var u=0;u<e;u++)t[u].removeAttribute(n);else for(var a=0;a<e;a++)t[a].setAttribute(n,o)}}return function(e){var i=r(e);null==i?t.removeAttribute(n):t.setAttribute(n,i)}}(r,e,s,a):null}function L(n,r,e,i){if(!i||"object"!==t(i))return null;var o=null,u=null;return Array.isArray(i)?u=function(t){if(!t||!t.length)return null;for(var n=0;n<t.length;n++)t[n].e&&(t[n].e=N(t[n].e));return t.sort(q)}(i):(u=i.keys,o=i.data||null),u?T(n,r,e,u,o):null}function C(t,n,r){if(!r)return null;var e=[];for(var i in r)if(r.hasOwnProperty(i)){var o=L(t,n,i,r[i]);o&&e.push(o)}return e.length?e:null}function z(t,n){if(!n.duration||n.duration<0)return null;var r=function(t,n){if(!n)return null;var r=[];if(Array.isArray(n))for(var e=n.length,i=0;i<e;i++){var o=n[i];if(2===o.length){var u=null;if("string"==typeof o[0])u=t.getElementById(o[0]);else if(Array.isArray(o[0])){u=[];for(var a=0;a<o[0].length;a++)if("string"==typeof o[0][a]){var l=t.getElementById(o[0][a]);l&&u.push(l)}u=u.length?1===u.length?u[0]:new P(u):null}if(u){var f=C(t,u,o[1]);f&&(r=r.concat(f))}}}else for(var s in n)if(n.hasOwnProperty(s)){var c=t.getElementById(s);if(c){var h=C(t,c,n[s]);h&&(r=r.concat(h))}}return r.length?r:null}(t,n.elements);return r?function(t,n){var r=arguments.length>2&&void 0!==arguments[2]?arguments[2]:1/0,e=arguments.length>3&&void 0!==arguments[3]?arguments[3]:1,i=arguments.length>4&&void 0!==arguments[4]&&arguments[4],o=arguments.length>5&&void 0!==arguments[5]?arguments[5]:1,u=t.length,a=e>0?n:0;i&&r%2==0&&(a=n-a);var l=null;return function(f,s){var c=f%n,h=1+(f-c)/n;s*=e,i&&h%2==0&&(s=-s);var v=!1;if(h>r)c=a,v=!0,-1===o&&(c=e>0?0:n);else if(s<0&&(c=n-c),c===l)return!1;l=c;for(var y=0;y<u;y++)t[y](c);return v}}(r,n.duration,n.iterations||1/0,n.direction||1,!!n.alternate,n.fill||1):null}Number.isInteger||(Number.isInteger=function(t){return"number"==typeof t&&isFinite(t)&&Math.floor(t)===t}),Number.EPSILON||(Number.EPSILON=2220446049250313e-31);var D=function(){function t(r,e){var i=arguments.length>2&&void 0!==arguments[2]?arguments[2]:{};n(this,t),this._id=0,this._running=!1,this._rollingBack=!1,this._animations=r,this.duration=e.duration,this.alternate=e.alternate,this.fill=e.fill,this.iterations=e.iterations,this.direction=i.direction||1,this.speed=i.speed||1,this.fps=i.fps||100,this.offset=i.offset||0,this.rollbackStartOffset=0}return e(t,[{key:"_rollback",value:function(){var t=this,n=1/0,r=null;this.rollbackStartOffset=this.offset,this._rollingBack||(this._rollingBack=!0,this._running=!0);this._id=window.requestAnimationFrame((function e(i){if(t._rollingBack){null==r&&(r=i);var o=i-r,u=t.rollbackStartOffset-o,a=Math.round(u*t.speed);if(a>t.duration&&n!=1/0){var l=!!t.alternate&&a/t.duration%2>1,f=a%t.duration;a=(f+=l?t.duration:0)||t.duration}var s=t.fps?1e3/t.fps:0,c=Math.max(0,a);if(c<n-s){t.offset=c,n=c;for(var h=t._animations,v=h.length,y=0;y<v;y++)h[y](c,t.direction)}var d=!1;if(t.iterations>0&&-1===t.fill){var g=t.iterations*t.duration,p=g==a;a=p?0:a,t.offset=p?0:t.offset,d=a>g}a>0&&t.offset>=a&&!d?t._id=window.requestAnimationFrame(e):t.stop()}}))}},{key:"_start",value:function(){var t=this,n=arguments.length>0&&void 0!==arguments[0]?arguments[0]:0,r=-1/0,e=null,i={},o=function o(u){t._running=!0,null==e&&(e=u);var a=Math.round((u-e+n)*t.speed),l=t.fps?1e3/t.fps:0;if(a>r+l&&!t._rollingBack){t.offset=a,r=a;for(var f=t._animations,s=f.length,c=0,h=0;h<s;h++)i[h]?c++:(i[h]=f[h](a,t.direction),i[h]&&c++);if(c===s)return void t._stop()}t._id=window.requestAnimationFrame(o)};this._id=window.requestAnimationFrame(o)}},{key:"_stop",value:function(){this._id&&window.cancelAnimationFrame(this._id),this._running=!1,this._rollingBack=!1}},{key:"play",value:function(){!this._rollingBack&&this._running||(this._rollingBack=!1,this.rollbackStartOffset>this.duration&&(this.offset=this.rollbackStartOffset-(this.rollbackStartOffset-this.offset)%this.duration,this.rollbackStartOffset=0),this._start(this.offset))}},{key:"stop",value:function(){this._stop(),this.offset=0,this.rollbackStartOffset=0;var t=this.direction,n=this._animations;window.requestAnimationFrame((function(){for(var r=0;r<n.length;r++)n[r](0,t)}))}},{key:"reachedToEnd",value:function(){return this.iterations>0&&this.offset>=this.iterations*this.duration}},{key:"restart",value:function(){this._stop(),this.offset=0,this._start()}},{key:"pause",value:function(){this._stop()}},{key:"reverse",value:function(){this.direction=-this.direction}}],[{key:"build",value:function(n,r){return(n=function(t,n){if(j=n,!t||!t.root||!Array.isArray(t.animations))return null;for(var r=document.getElementsByTagName("svg"),e=!1,i=0;i<r.length;i++)if(r[i].id===t.root&&!r[i].svgatorAnimation){(e=r[i]).svgatorAnimation=!0;break}if(!e)return null;var o=t.animations.map((function(t){return z(e,t)})).filter((function(t){return!!t}));return o.length?{element:e,animations:o,animationSettings:t.animationSettings,options:t.options||void 0}:null}(n,r))?{el:n.element,options:n.options||{},player:new t(n.animations,n.animationSettings,n.options)}:null}}]),t}();function Q(t){return s(t)+""}function U(t){var n=arguments.length>1&&void 0!==arguments[1]?arguments[1]:" ";return t&&t.length?t.map(Q).join(n):""}function V(t){return t?null==t.a||t.a>=1?"rgb("+t.r+","+t.g+","+t.b+")":"rgba("+t.r+","+t.g+","+t.b+","+t.a+")":"transparent"}!function(){for(var t=0,n=["ms","moz","webkit","o"],r=0;r<n.length&&!window.requestAnimationFrame;++r)window.requestAnimationFrame=window[n[r]+"RequestAnimationFrame"],window.cancelAnimationFrame=window[n[r]+"CancelAnimationFrame"]||window[n[r]+"CancelRequestAnimationFrame"];window.requestAnimationFrame||(window.requestAnimationFrame=function(n){var r=Date.now(),e=Math.max(0,16-(r-t)),i=window.setTimeout((function(){n(r+e)}),e);return t=r+e,i},window.cancelAnimationFrame=window.clearTimeout)}();var G={f:null,i:function(t,n,r){return 0===t?n:1===t?r:{x:x(t,n.x,r.x),y:x(t,n.y,r.y)}},u:function(t,n){return function(r){var e=n(r);t.setAttribute("rx",Q(e.x)),t.setAttribute("ry",Q(e.y))}}},H={f:null,i:function(t,n,r){return 0===t?n:1===t?r:{width:x(t,n.width,r.width),height:x(t,n.height,r.height)}},u:function(t,n){return function(r){var e=n(r);t.setAttribute("width",Q(e.width)),t.setAttribute("height",Q(e.height))}}},Y=Math.sin,Z=Math.cos,J=Math.acos,K=Math.asin,W=Math.tan,X=Math.atan2,$=Math.PI/180,tt=180/Math.PI,nt=Math.sqrt,rt=function(){function t(){var r=arguments.length>0&&void 0!==arguments[0]?arguments[0]:1,e=arguments.length>1&&void 0!==arguments[1]?arguments[1]:0,i=arguments.length>2&&void 0!==arguments[2]?arguments[2]:0,o=arguments.length>3&&void 0!==arguments[3]?arguments[3]:1,u=arguments.length>4&&void 0!==arguments[4]?arguments[4]:0,a=arguments.length>5&&void 0!==arguments[5]?arguments[5]:0;n(this,t),this.m=[r,e,i,o,u,a],this.i=null,this.w=null,this.s=null}return e(t,[{key:"determinant",get:function(){var t=this.m;return t[0]*t[3]-t[1]*t[2]}},{key:"isIdentity",get:function(){if(null===this.i){var t=this.m;this.i=1===t[0]&&0===t[1]&&0===t[2]&&1===t[3]&&0===t[4]&&0===t[5]}return this.i}},{key:"point",value:function(t,n){var r=this.m;return{x:r[0]*t+r[2]*n+r[4],y:r[1]*t+r[3]*n+r[5]}}},{key:"translateSelf",value:function(){var t=arguments.length>0&&void 0!==arguments[0]?arguments[0]:0,n=arguments.length>1&&void 0!==arguments[1]?arguments[1]:0;if(!t&&!n)return this;var r=this.m;return r[4]+=r[0]*t+r[2]*n,r[5]+=r[1]*t+r[3]*n,this.w=this.s=this.i=null,this}},{key:"rotateSelf",value:function(){var t=arguments.length>0&&void 0!==arguments[0]?arguments[0]:0;if(t%=360){var n=Y(t*=$),r=Z(t),e=this.m,i=e[0],o=e[1];e[0]=i*r+e[2]*n,e[1]=o*r+e[3]*n,e[2]=e[2]*r-i*n,e[3]=e[3]*r-o*n,this.w=this.s=this.i=null}return this}},{key:"scaleSelf",value:function(){var t=arguments.length>0&&void 0!==arguments[0]?arguments[0]:1,n=arguments.length>1&&void 0!==arguments[1]?arguments[1]:1;if(1!==t||1!==n){var r=this.m;r[0]*=t,r[1]*=t,r[2]*=n,r[3]*=n,this.w=this.s=this.i=null}return this}},{key:"skewSelf",value:function(t,n){if(n%=360,(t%=360)||n){var r=this.m,e=r[0],i=r[1],o=r[2],u=r[3];t&&(t=W(t*$),r[2]+=e*t,r[3]+=i*t),n&&(n=W(n*$),r[0]+=o*n,r[1]+=u*n),this.w=this.s=this.i=null}return this}},{key:"resetSelf",value:function(){var t=arguments.length>0&&void 0!==arguments[0]?arguments[0]:1,n=arguments.length>1&&void 0!==arguments[1]?arguments[1]:0,r=arguments.length>2&&void 0!==arguments[2]?arguments[2]:0,e=arguments.length>3&&void 0!==arguments[3]?arguments[3]:1,i=arguments.length>4&&void 0!==arguments[4]?arguments[4]:0,o=arguments.length>5&&void 0!==arguments[5]?arguments[5]:0,u=this.m;return u[0]=t,u[1]=n,u[2]=r,u[3]=e,u[4]=i,u[5]=o,this.w=this.s=this.i=null,this}},{key:"recomposeSelf",value:function(){var t=arguments.length>0&&void 0!==arguments[0]?arguments[0]:null,n=arguments.length>1&&void 0!==arguments[1]?arguments[1]:null,r=arguments.length>2&&void 0!==arguments[2]?arguments[2]:null,e=arguments.length>3&&void 0!==arguments[3]?arguments[3]:null,i=arguments.length>4&&void 0!==arguments[4]?arguments[4]:null;return this.isIdentity||this.resetSelf(),t&&(t.x||t.y)&&this.translateSelf(t.x,t.y),n&&this.rotateSelf(n),r&&(r.x&&this.skewSelf(r.x,0),r.y&&this.skewSelf(0,r.y)),!e||1===e.x&&1===e.y||this.scaleSelf(e.x,e.y),i&&(i.x||i.y)&&this.translateSelf(i.x,i.y),this}},{key:"decompose",value:function(){var t=arguments.length>0&&void 0!==arguments[0]?arguments[0]:0,n=arguments.length>1&&void 0!==arguments[1]?arguments[1]:0,r=this.m,e=r[0]*r[0]+r[1]*r[1],i=[[r[0],r[1]],[r[2],r[3]]],o=nt(e);if(0===o)return{origin:{x:s(r[4]),y:s(r[5])},translate:{x:s(t),y:s(n)},scale:{x:0,y:0},skew:{x:0,y:0},rotate:0};i[0][0]/=o,i[0][1]/=o;var u=r[0]*r[3]-r[1]*r[2]<0;u&&(o=-o);var a=i[0][0]*i[1][0]+i[0][1]*i[1][1];i[1][0]-=i[0][0]*a,i[1][1]-=i[0][1]*a;var l=nt(i[1][0]*i[1][0]+i[1][1]*i[1][1]);if(0===l)return{origin:{x:s(r[4]),y:s(r[5])},translate:{x:s(t),y:s(n)},scale:{x:s(o),y:0},skew:{x:0,y:0},rotate:0};i[1][0]/=l,i[1][1]/=l,a/=l;var f=0;return i[1][1]<0?(f=J(i[1][1])*tt,i[0][1]<0&&(f=360-f)):f=K(i[0][1])*tt,u&&(f=-f),a=X(a,nt(i[0][0]*i[0][0]+i[0][1]*i[0][1]))*tt,u&&(a=-a),{origin:{x:s(r[4]),y:s(r[5])},translate:{x:s(t),y:s(n)},scale:{x:s(o),y:s(l)},skew:{x:s(a),y:0},rotate:s(f)}}},{key:"toString",value:function(){return null===this.s&&(this.s="matrix("+this.m.map((function(t){return s(t)})).join(" ")+")"),this.s}}]),t}();Object.freeze({M:2,L:2,Z:0,H:1,V:1,C:6,Q:4,T:2,S:4,A:7});var et={},it=null;function ot(n){var r=function(){if(it)return it;if("object"!==("undefined"==typeof document?"undefined":t(document))||!document.createElementNS)return{};var n=document.createElementNS("http://www.w3.org/2000/svg","svg");return n&&n.style?(n.style.position="absolute",n.style.opacity="0.01",n.style.zIndex="-9999",n.style.left="-9999px",n.style.width="1px",n.style.height="1px",it={svg:n}):{}}().svg;if(!r)return function(t){return null};var e=document.createElementNS(r.namespaceURI,"path");e.setAttributeNS(null,"d",n),e.setAttributeNS(null,"fill","none"),e.setAttributeNS(null,"stroke","none"),r.appendChild(e);var i=e.getTotalLength();return function(t){var n=e.getPointAtLength(i*t);return{x:n.x,y:n.y}}}function ut(t){return et[t]?et[t]:et[t]=ot(t)}function at(t,n,r,e){if(!t||!e)return!1;var i=["M",t.x,t.y];if(n&&r&&(i.push("C"),i.push(n.x),i.push(n.y),i.push(r.x),i.push(r.y)),n?!r:r){var o=n||r;i.push("Q"),i.push(o.x),i.push(o.y)}return n||r||i.push("L"),i.push(e.x),i.push(e.y),i.join(" ")}function lt(t,n,r,e){var i=arguments.length>4&&void 0!==arguments[4]?arguments[4]:1,o=at(t,n,r,e),u=ut(o);try{return u(i)}catch(t){return null}}function ft(t,n,r,e){var i=1-e;return i*i*t+2*i*e*n+e*e*r}function st(t,n,r,e){return 2*(1-e)*(n-t)+2*e*(r-n)}function ct(t,n,r,e){var i=arguments.length>4&&void 0!==arguments[4]&&arguments[4],o=lt(t,n,null,r,e);return o||(o={x:ft(t.x,n.x,r.x,e),y:ft(t.y,n.y,r.y,e)}),i&&(o.a=ht(t,n,r,e)),o}function ht(t,n,r,e){return Math.atan2(st(t.y,n.y,r.y,e),st(t.x,n.x,r.x,e))}function vt(t,n,r,e,i){var o=i*i;return i*o*(e-t+3*(n-r))+3*o*(t+r-2*n)+3*i*(n-t)+t}function yt(t,n,r,e,i){var o=1-i;return 3*(o*o*(n-t)+2*o*i*(r-n)+i*i*(e-r))}function dt(t,n,r,e,i){var o=arguments.length>5&&void 0!==arguments[5]&&arguments[5],u=lt(t,n,r,e,i);return u||(u={x:vt(t.x,n.x,r.x,e.x,i),y:vt(t.y,n.y,r.y,e.y,i)}),o&&(u.a=gt(t,n,r,e,i)),u}function gt(t,n,r,e,i){return Math.atan2(yt(t.y,n.y,r.y,e.y,i),yt(t.x,n.x,r.x,e.x,i))}function pt(t,n,r){return t+(n-t)*r}function mt(t,n,r){var e=arguments.length>3&&void 0!==arguments[3]&&arguments[3],i={x:pt(t.x,n.x,r),y:pt(t.y,n.y,r)};return e&&(i.a=bt(t,n)),i}function bt(t,n){return Math.atan2(n.y-t.y,n.x-t.x)}function wt(t,n,r){var e=arguments.length>3&&void 0!==arguments[3]&&arguments[3];if(kt(n)){if(At(r))return ct(n,r.start,r,t,e)}else if(kt(r)){if(n.end)return ct(n,n.end,r,t,e)}else{if(n.end)return r.start?dt(n,n.end,r.start,r,t,e):ct(n,n.end,r,t,e);if(r.start)return ct(n,r.start,r,t,e)}return mt(n,r,t,e)}function xt(t,n,r){var e=wt(t,n,r,!0);return e.a=function(t){return arguments.length>1&&void 0!==arguments[1]&&arguments[1]?t+Math.PI:t}(e.a)/h,e}function kt(t){return!t.type||"corner"===t.type}function At(t){return null!=t.start&&!kt(t)}var St=new rt;var _t={f:Q,i:w},Ot={f:Q,i:function(t,n,r){var e=w(t,n,r);return e<=0?0:e>=1?1:e}};function Mt(t,n,r,e,i,o,u,a){return n=function(t,n,r){for(var e,i,o,u=t.length-1,a={},l=0;l<=u;l++)(e=t[l]).e&&(e.e=n(e.e)),e.v&&"g"===(i=e.v).t&&i.r&&(o=r.getElementById(i.r))&&(a[i.r]=o.querySelectorAll("stop"));return a}(t,e,a),function(e){var i,o=r(e,t,jt);return o?"c"===o.t?V(o.v):"g"===o.t?(n[o.r]&&function(t,n){for(var r=0,e=t.length;r<e;r++)t[r].setAttribute("stop-color",V(n[r]))}(n[o.r],o.v),(i=o.r)?"url(#"+i+")":"none"):"none":"none"}}function jt(t,n,r){if(0===t)return n;if(1===t)return r;if(n&&r){var e=n.t;if(e===r.t)switch(n.t){case"c":return{t:e,v:S(t,n.v,r.v)};case"g":if(n.r===r.r)return{t:e,v:_(t,n.v,r.v),r:n.r}}}return b(t,n,r)}var Pt={fill:Mt,"fill-opacity":Ot,stroke:Mt,"stroke-opacity":Ot,"stroke-width":_t,"stroke-dashoffset":{f:Q,i:w},"stroke-dasharray":{f:function(t){var n=arguments.length>1&&void 0!==arguments[1]?arguments[1]:" ";return t&&t.length>0&&(t=t.map((function(t){return s(t,4)}))),U(t,n)},i:function(t,n,r){var e,i,o,u=n.length,a=r.length;if(u!==a)if(0===u)n=O(u=a,0);else if(0===a)a=u,r=O(u,0);else{var l=(o=(e=u)*(i=a)/function(t,n){for(var r;n;)r=n,n=t%n,t=r;return t||1}(e,i))<0?-o:o;n=M(n,Math.floor(l/u)),r=M(r,Math.floor(l/a)),u=a=l}for(var f=[],c=0;c<u;c++)f.push(s(x(t,n[c],r[c])));return f}},opacity:Ot,transform:function(n,r,e,i){if(!(n=function(n,r){if(!n||"object"!==t(n))return null;var e=!1;for(var i in n)n.hasOwnProperty(i)&&(n[i]&&n[i].length?(n[i].forEach((function(t){t.e&&(t.e=r(t.e))})),e=!0):delete n[i]);return e?n:null}(n,i)))return null;var o=function(t,i,o){var u=arguments.length>3&&void 0!==arguments[3]?arguments[3]:null;return n[t]?e(i,n[t],o):r&&r[t]?r[t]:u};return r&&r.a&&n.o?function(t){var r=e(t,n.o,xt);return St.recomposeSelf(r,o("r",t,w,0)+r.a,o("k",t,k),o("s",t,k),o("t",t,k)).toString()}:function(t){return St.recomposeSelf(o("o",t,wt,null),o("r",t,w,0),o("k",t,k),o("s",t,k),o("t",t,k)).toString()}},r:_t,"#size":H,"#radius":G,_:function(t,n){if(Array.isArray(t))for(var r=0;r<t.length;r++)this[t[r]]=n;else this[t]=n}};return function(t){!function(t,n){if("function"!=typeof n&&null!==n)throw new TypeError("Super expression must either be null or a function");t.prototype=Object.create(n&&n.prototype,{constructor:{value:t,writable:!0,configurable:!0}}),n&&o(t,n)}(u,t);var r=a(u);function u(){return n(this,u),r.apply(this,arguments)}return e(u,null,[{key:"build",value:function(t){var n=l(i(u),"build",this).call(this,t,Pt);if(!n)return null;n.el,n.options;var r=n.player;return function(t,n,r){t.play()}(r),r}}]),u}(D)}));
__SVGATOR_PLAYER__.build({"root":"eZ1xnCBl9wV1","animations":[{"duration":3000,"direction":1,"iterations":1,"fill":1,"alternate":false,"speed":1,"elements":{"eZ1xnCBl9wV2":{"transform":{"data":{"t":{"x":-222.940201,"y":-7.307861}},"keys":{"o":[{"t":0,"v":{"x":216.130005,"y":-406.84787,"type":"corner"},"e":[0.42,0,1,1]},{"t":1600,"v":{"x":218.360006,"y":-2.422146,"type":"corner"}}]}}},"eZ1xnCBl9wV32":{"transform":{"data":{"t":{"x":-245.245731,"y":-181.859779}},"keys":{"o":[{"t":800,"v":{"x":247.385,"y":-113.265731,"type":"corner"},"e":[0.42,0,1,1]},{"t":2300,"v":{"x":247.385016,"y":232.559984,"type":"corner"}}]}}},"eZ1xnCBl9wV66":{"transform":{"data":{"t":{"x":-211.206528,"y":134.199402}},"keys":{"o":[{"t":1500,"v":{"x":206.895816,"y":-277.572691,"type":"corner"}},{"t":3000,"v":{"x":205.316336,"y":-27.480387,"type":"corner"}}]}}}}}],"options":{"start":"load","hover":null,"click":null,"scroll":null,"font":"embed","exportedIds":"unique","svgFormat":"animated","title":"books-v2"},"animationSettings":{"duration":3000,"direction":1,"iterations":1,"fill":1,"alternate":false,"speed":1}})]]></script></svg>